# MagicaVoxel @ Ephtracy

# group
o 

# material
mtllib CAT_2.mtl
usemtl palette

# normals
vn -1 0 0
vn 1 0 0
vn 0 0 1
vn 0 0 -1
vn 0 -1 0
vn 0 1 0

# texcoords
vt 0.00195313 0.5
vt 0.00585938 0.5
vt 0.00976563 0.5
vt 0.0136719 0.5
vt 0.0175781 0.5
vt 0.0253906 0.5
vt 0.0410156 0.5
vt 0.0449219 0.5
vt 0.185547 0.5
vt 0.306641 0.5
vt 0.958984 0.5
vt 0.962891 0.5

# verts
v 0.2 2.1 -0.3
v 0.2 2.1 -1
v 0.2 2.6 -0.3
v 0.2 2.6 -1
v 0.3 1.2 -0.5
v 0.3 1.2 -0.9
v 0.3 1.2 -1.6
v 0.3 1.2 -2
v 0.3 1.4 -0.5
v 0.3 1.4 -0.6
v 0.3 1.4 -0.9
v 0.3 1.4 -1.6
v 0.3 1.4 -1.7
v 0.3 1.4 -2
v 0.3 1.6 -0.9
v 0.3 1.6 -1.7
v 0.3 2 -0.3
v 0.3 2 -0.6
v 0.3 2.1 -0.3
v 0.3 2.1 -1
v 0.3 2.3 -1
v 0.3 2.3 -2
v 0.3 2.6 -0.3
v 0.3 2.6 -1
v 0.3 3.2 -0.3
v 0.3 3.2 -0.6
v 0.3 3.2 -0.9
v 0.3 3.2 -1
v 0.3 3.6 -0.6
v 0.3 3.6 -0.9
v 0.4 2.5 -0.2
v 0.4 2.5 -0.3
v 0.4 2.6 -0.2
v 0.4 2.6 -0.3
v 0.4 2.9 -0.2
v 0.4 2.9 -0.3
v 0.4 3.2 -0.3
v 0.4 3.2 -0.6
v 0.4 3.2 -0.9
v 0.4 3.2 -1
v 0.4 3.3 -0.3
v 0.4 3.3 -0.6
v 0.4 3.3 -0.9
v 0.4 3.3 -1
v 0.6 3.3 -0.6
v 0.6 3.3 -0.8
v 0.6 3.5 -0.6
v 0.6 3.5 -0.8
v 0.7 2.2 -0.2
v 0.7 2.2 -0.3
v 0.7 2.5 -0.2
v 0.7 2.5 -0.3
v 0.8 2.1 -0.2
v 0.8 2.1 -0.3
v 0.8 2.2 -0.2
v 0.8 2.2 -0.3
v 0.8 2.4 -0.1
v 0.8 2.4 -0.2
v 0.8 2.5 -0.1
v 0.8 2.5 -0.2
v 0.9 2 -2
v 0.9 2 -2.3
v 0.9 2.1 -2
v 0.9 2.1 -2.1
v 0.9 2.3 -0.1
v 0.9 2.3 -0.2
v 0.9 2.4 -0.1
v 0.9 2.4 -0.2
v 0.9 2.7 -1.9
v 0.9 2.7 -2.1
v 0.9 2.7 -2.2
v 0.9 2.7 -2.3
v 0.9 2.8 -2
v 0.9 2.8 -2.2
v 0.9 2.9 -1.9
v 0.9 2.9 -2
v 1.1 2.5 -0.2
v 1.1 2.5 -0.3
v 1.1 2.7 -0.2
v 1.1 2.7 -0.3
v 1.1 2.9 -0.2
v 1.1 2.9 -0.3
v 1.2 3.3 -0.6
v 1.2 3.3 -0.9
v 1.2 3.6 -0.6
v 1.2 3.6 -0.9
v 1.3 1.2 -0.5
v 1.3 1.2 -0.9
v 1.3 1.2 -1.6
v 1.3 1.2 -2
v 1.3 1.4 -0.5
v 1.3 1.4 -0.6
v 1.3 1.4 -0.9
v 1.3 1.4 -1.6
v 1.3 1.4 -1.7
v 1.3 1.4 -2
v 1.3 1.6 -0.6
v 1.3 1.6 -0.9
v 1.3 1.6 -1.7
v 1.3 1.6 -2
v 1.5 3.3 -0.6
v 1.5 3.3 -0.8
v 1.5 3.5 -0.6
v 1.5 3.5 -0.8
v 0.4 3.3 -0.6
v 0.4 3.3 -0.8
v 0.4 3.5 -0.6
v 0.4 3.5 -0.8
v 0.6 1.2 -0.5
v 0.6 1.2 -0.9
v 0.6 1.2 -1.6
v 0.6 1.2 -2
v 0.6 1.4 -0.5
v 0.6 1.4 -0.6
v 0.6 1.4 -0.9
v 0.6 1.4 -1.6
v 0.6 1.4 -1.7
v 0.6 1.4 -2
v 0.6 1.6 -0.6
v 0.6 1.6 -0.9
v 0.6 1.6 -1.7
v 0.6 1.6 -2
v 0.7 3.3 -0.6
v 0.7 3.3 -0.9
v 0.7 3.6 -0.6
v 0.7 3.6 -0.9
v 0.8 2.5 -0.2
v 0.8 2.5 -0.3
v 0.8 2.7 -0.2
v 0.8 2.7 -0.3
v 0.8 2.9 -0.2
v 0.8 2.9 -0.3
v 1 2.3 -0.1
v 1 2.3 -0.2
v 1 2.4 -0.1
v 1 2.4 -0.2
v 1.1 2 -2
v 1.1 2 -2.3
v 1.1 2.1 -0.2
v 1.1 2.1 -0.3
v 1.1 2.1 -2
v 1.1 2.1 -2.1
v 1.1 2.2 -0.2
v 1.1 2.2 -0.3
v 1.1 2.4 -0.1
v 1.1 2.4 -0.2
v 1.1 2.5 -0.1
v 1.1 2.5 -0.2
v 1.1 2.7 -1.9
v 1.1 2.7 -2.1
v 1.1 2.7 -2.2
v 1.1 2.7 -2.3
v 1.1 2.8 -2
v 1.1 2.8 -2.2
v 1.1 2.9 -1.9
v 1.1 2.9 -2
v 1.2 2.2 -0.2
v 1.2 2.2 -0.3
v 1.2 2.5 -0.2
v 1.2 2.5 -0.3
v 1.3 3.3 -0.6
v 1.3 3.3 -0.8
v 1.3 3.5 -0.6
v 1.3 3.5 -0.8
v 1.5 2.5 -0.2
v 1.5 2.5 -0.3
v 1.5 2.6 -0.2
v 1.5 2.6 -0.3
v 1.5 2.9 -0.2
v 1.5 2.9 -0.3
v 1.5 3.2 -0.3
v 1.5 3.2 -0.6
v 1.5 3.2 -0.9
v 1.5 3.2 -1
v 1.5 3.3 -0.3
v 1.5 3.3 -0.6
v 1.5 3.3 -0.9
v 1.5 3.3 -1
v 1.6 1.2 -0.5
v 1.6 1.2 -0.9
v 1.6 1.2 -1.6
v 1.6 1.2 -2
v 1.6 1.4 -0.5
v 1.6 1.4 -0.6
v 1.6 1.4 -0.9
v 1.6 1.4 -1.6
v 1.6 1.4 -1.7
v 1.6 1.4 -2
v 1.6 1.6 -0.9
v 1.6 1.6 -1.7
v 1.6 2 -0.3
v 1.6 2 -0.6
v 1.6 2.1 -0.3
v 1.6 2.1 -1
v 1.6 2.3 -1
v 1.6 2.3 -2
v 1.6 2.6 -0.3
v 1.6 2.6 -1
v 1.6 3.2 -0.3
v 1.6 3.2 -0.6
v 1.6 3.2 -0.9
v 1.6 3.2 -1
v 1.6 3.6 -0.6
v 1.6 3.6 -0.9
v 1.7 2.1 -0.3
v 1.7 2.1 -1
v 1.7 2.6 -0.3
v 1.7 2.6 -1
v 0.8 2.4 -0.1
v 0.8 2.5 -0.1
v 0.9 2.3 -0.1
v 0.9 2.4 -0.1
v 1 2.3 -0.1
v 1 2.4 -0.1
v 1.1 2.4 -0.1
v 1.1 2.5 -0.1
v 0.4 2.5 -0.2
v 0.4 2.6 -0.2
v 0.4 2.9 -0.2
v 0.5 2.5 -0.2
v 0.5 2.6 -0.2
v 0.5 2.7 -0.2
v 0.5 2.8 -0.2
v 0.6 2.7 -0.2
v 0.6 2.8 -0.2
v 0.7 2.2 -0.2
v 0.7 2.5 -0.2
v 0.7 2.6 -0.2
v 0.7 2.7 -0.2
v 0.7 2.8 -0.2
v 0.7 2.9 -0.2
v 0.8 2.1 -0.2
v 0.8 2.2 -0.2
v 0.8 2.4 -0.2
v 0.8 2.5 -0.2
v 0.8 2.7 -0.2
v 0.8 2.9 -0.2
v 0.9 2.3 -0.2
v 0.9 2.4 -0.2
v 1 2.3 -0.2
v 1 2.4 -0.2
v 1.1 2.1 -0.2
v 1.1 2.2 -0.2
v 1.1 2.4 -0.2
v 1.1 2.5 -0.2
v 1.1 2.7 -0.2
v 1.1 2.9 -0.2
v 1.2 2.2 -0.2
v 1.2 2.5 -0.2
v 1.2 2.6 -0.2
v 1.2 2.7 -0.2
v 1.2 2.8 -0.2
v 1.2 2.9 -0.2
v 1.3 2.7 -0.2
v 1.3 2.8 -0.2
v 1.4 2.5 -0.2
v 1.4 2.6 -0.2
v 1.4 2.8 -0.2
v 1.5 2.5 -0.2
v 1.5 2.6 -0.2
v 1.5 2.9 -0.2
v 0.2 2.1 -0.3
v 0.2 2.6 -0.3
v 0.3 2 -0.3
v 0.3 2.1 -0.3
v 0.3 2.6 -0.3
v 0.3 3.2 -0.3
v 0.4 2.5 -0.3
v 0.4 2.6 -0.3
v 0.4 2.9 -0.3
v 0.4 3.2 -0.3
v 0.4 3.3 -0.3
v 0.5 2.5 -0.3
v 0.7 2.2 -0.3
v 0.7 2.5 -0.3
v 0.7 2.9 -0.3
v 0.8 2.1 -0.3
v 0.8 2.2 -0.3
v 0.8 2.5 -0.3
v 0.8 2.7 -0.3
v 0.8 2.9 -0.3
v 1.1 2.1 -0.3
v 1.1 2.2 -0.3
v 1.1 2.5 -0.3
v 1.1 2.7 -0.3
v 1.1 2.9 -0.3
v 1.2 2.2 -0.3
v 1.2 2.5 -0.3
v 1.2 2.9 -0.3
v 1.4 2.5 -0.3
v 1.5 2.5 -0.3
v 1.5 2.6 -0.3
v 1.5 2.9 -0.3
v 1.5 3.2 -0.3
v 1.5 3.3 -0.3
v 1.6 2 -0.3
v 1.6 2.1 -0.3
v 1.6 2.6 -0.3
v 1.6 3.2 -0.3
v 1.7 2.1 -0.3
v 1.7 2.6 -0.3
v 0.3 1.2 -0.5
v 0.3 1.4 -0.5
v 0.6 1.2 -0.5
v 0.6 1.4 -0.5
v 1.3 1.2 -0.5
v 1.3 1.4 -0.5
v 1.6 1.2 -0.5
v 1.6 1.4 -0.5
v 0.3 1.4 -0.6
v 0.3 2 -0.6
v 0.3 3.2 -0.6
v 0.3 3.6 -0.6
v 0.4 3.2 -0.6
v 0.4 3.3 -0.6
v 0.4 3.5 -0.6
v 0.6 1.4 -0.6
v 0.6 1.6 -0.6
v 0.6 1.9 -0.6
v 0.6 2 -0.6
v 0.6 3.3 -0.6
v 0.6 3.5 -0.6
v 0.7 1.7 -0.6
v 0.7 1.9 -0.6
v 0.7 3.3 -0.6
v 0.7 3.6 -0.6
v 0.8 1.6 -0.6
v 0.8 1.7 -0.6
v 1.1 1.6 -0.6
v 1.1 1.7 -0.6
v 1.2 1.7 -0.6
v 1.2 1.9 -0.6
v 1.2 3.3 -0.6
v 1.2 3.6 -0.6
v 1.3 1.4 -0.6
v 1.3 1.6 -0.6
v 1.3 1.9 -0.6
v 1.3 2 -0.6
v 1.3 3.3 -0.6
v 1.3 3.5 -0.6
v 1.5 3.2 -0.6
v 1.5 3.3 -0.6
v 1.5 3.5 -0.6
v 1.6 1.4 -0.6
v 1.6 2 -0.6
v 1.6 3.2 -0.6
v 1.6 3.6 -0.6
v 0.4 3.3 -0.8
v 0.4 3.5 -0.8
v 0.6 3.3 -0.8
v 0.6 3.5 -0.8
v 1.3 3.3 -0.8
v 1.3 3.5 -0.8
v 1.5 3.3 -0.8
v 1.5 3.5 -0.8
v 0.3 1.2 -1.6
v 0.3 1.4 -1.6
v 0.6 1.2 -1.6
v 0.6 1.4 -1.6
v 1.3 1.2 -1.6
v 1.3 1.4 -1.6
v 1.6 1.2 -1.6
v 1.6 1.4 -1.6
v 0.3 1.4 -1.7
v 0.3 1.6 -1.7
v 0.6 1.4 -1.7
v 0.6 1.6 -1.7
v 1.3 1.4 -1.7
v 1.3 1.6 -1.7
v 1.6 1.4 -1.7
v 1.6 1.6 -1.7
v 0.9 2.7 -1.9
v 0.9 2.9 -1.9
v 1.1 2.7 -1.9
v 1.1 2.9 -1.9
v 0.9 2.1 -2.1
v 0.9 2.7 -2.1
v 1.1 2.1 -2.1
v 1.1 2.7 -2.1
v 0.3 1.2 -0.9
v 0.3 1.4 -0.9
v 0.3 1.6 -0.9
v 0.3 3.2 -0.9
v 0.3 3.6 -0.9
v 0.4 3.2 -0.9
v 0.4 3.3 -0.9
v 0.4 3.5 -0.9
v 0.6 1.2 -0.9
v 0.6 1.4 -0.9
v 0.6 1.6 -0.9
v 0.6 3.3 -0.9
v 0.6 3.5 -0.9
v 0.7 3.3 -0.9
v 0.7 3.6 -0.9
v 1.2 3.3 -0.9
v 1.2 3.6 -0.9
v 1.3 1.2 -0.9
v 1.3 1.4 -0.9
v 1.3 1.6 -0.9
v 1.3 3.3 -0.9
v 1.3 3.5 -0.9
v 1.5 3.2 -0.9
v 1.5 3.3 -0.9
v 1.5 3.5 -0.9
v 1.6 1.2 -0.9
v 1.6 1.4 -0.9
v 1.6 1.6 -0.9
v 1.6 3.2 -0.9
v 1.6 3.6 -0.9
v 0.2 2.1 -1
v 0.2 2.6 -1
v 0.3 2.1 -1
v 0.3 2.3 -1
v 0.3 2.6 -1
v 0.3 3.2 -1
v 0.4 3.2 -1
v 0.4 3.3 -1
v 1.5 3.2 -1
v 1.5 3.3 -1
v 1.6 2.1 -1
v 1.6 2.3 -1
v 1.6 2.6 -1
v 1.6 3.2 -1
v 1.7 2.1 -1
v 1.7 2.6 -1
v 0.3 1.2 -2
v 0.3 1.4 -2
v 0.3 2.3 -2
v 0.6 1.2 -2
v 0.6 1.4 -2
v 0.6 1.6 -2
v 0.9 2 -2
v 0.9 2.1 -2
v 0.9 2.8 -2
v 0.9 2.9 -2
v 1.1 2 -2
v 1.1 2.1 -2
v 1.1 2.8 -2
v 1.1 2.9 -2
v 1.3 1.2 -2
v 1.3 1.4 -2
v 1.3 1.6 -2
v 1.6 1.2 -2
v 1.6 1.4 -2
v 1.6 2.3 -2
v 0.9 2.7 -2.2
v 0.9 2.8 -2.2
v 1.1 2.7 -2.2
v 1.1 2.8 -2.2
v 0.9 2 -2.3
v 0.9 2.7 -2.3
v 1.1 2 -2.3
v 1.1 2.7 -2.3
v 0.3 1.2 -0.5
v 0.6 1.2 -0.5
v 1.3 1.2 -0.5
v 1.6 1.2 -0.5
v 0.3 1.2 -0.9
v 0.6 1.2 -0.9
v 1.3 1.2 -0.9
v 1.6 1.2 -0.9
v 0.3 1.2 -1.6
v 0.6 1.2 -1.6
v 1.3 1.2 -1.6
v 1.6 1.2 -1.6
v 0.3 1.2 -2
v 0.6 1.2 -2
v 1.3 1.2 -2
v 1.6 1.2 -2
v 0.6 1.6 -0.6
v 0.8 1.6 -0.6
v 1.1 1.6 -0.6
v 1.3 1.6 -0.6
v 0.3 1.6 -0.9
v 0.6 1.6 -0.9
v 1.3 1.6 -0.9
v 1.6 1.6 -0.9
v 0.3 1.6 -1.7
v 0.6 1.6 -1.7
v 1.3 1.6 -1.7
v 1.6 1.6 -1.7
v 0.8 1.6 -1.9
v 1.1 1.6 -1.9
v 0.6 1.6 -2
v 1.3 1.6 -2
v 0.3 2 -0.3
v 1.6 2 -0.3
v 0.3 2 -0.6
v 0.6 2 -0.6
v 1.3 2 -0.6
v 1.6 2 -0.6
v 0.9 2 -2
v 1.1 2 -2
v 0.9 2 -2.3
v 1.1 2 -2.3
v 0.8 2.1 -0.2
v 1.1 2.1 -0.2
v 0.2 2.1 -0.3
v 0.3 2.1 -0.3
v 0.8 2.1 -0.3
v 1.1 2.1 -0.3
v 1.6 2.1 -0.3
v 1.7 2.1 -0.3
v 0.2 2.1 -1
v 0.3 2.1 -1
v 1.6 2.1 -1
v 1.7 2.1 -1
v 0.7 2.2 -0.2
v 0.8 2.2 -0.2
v 1.1 2.2 -0.2
v 1.2 2.2 -0.2
v 0.7 2.2 -0.3
v 0.8 2.2 -0.3
v 1.1 2.2 -0.3
v 1.2 2.2 -0.3
v 0.9 2.3 -0.1
v 1 2.3 -0.1
v 0.9 2.3 -0.2
v 1 2.3 -0.2
v 0.8 2.4 -0.1
v 0.9 2.4 -0.1
v 1 2.4 -0.1
v 1.1 2.4 -0.1
v 0.8 2.4 -0.2
v 0.9 2.4 -0.2
v 1 2.4 -0.2
v 1.1 2.4 -0.2
v 0.4 2.5 -0.2
v 0.5 2.5 -0.2
v 0.7 2.5 -0.2
v 1.2 2.5 -0.2
v 1.4 2.5 -0.2
v 1.5 2.5 -0.2
v 0.4 2.5 -0.3
v 0.5 2.5 -0.3
v 0.7 2.5 -0.3
v 1.2 2.5 -0.3
v 1.4 2.5 -0.3
v 1.5 2.5 -0.3
v 0.9 2.7 -1.9
v 1.1 2.7 -1.9
v 0.9 2.7 -2.1
v 1.1 2.7 -2.1
v 0.4 3.5 -0.6
v 0.6 3.5 -0.6
v 1.3 3.5 -0.6
v 1.5 3.5 -0.6
v 0.4 3.5 -0.8
v 0.6 3.5 -0.8
v 1.3 3.5 -0.8
v 1.5 3.5 -0.8
v 0.3 1.4 -0.5
v 0.6 1.4 -0.5
v 1.3 1.4 -0.5
v 1.6 1.4 -0.5
v 0.3 1.4 -0.6
v 0.6 1.4 -0.6
v 1.3 1.4 -0.6
v 1.6 1.4 -0.6
v 0.3 1.4 -1.6
v 0.6 1.4 -1.6
v 1.3 1.4 -1.6
v 1.6 1.4 -1.6
v 0.3 1.4 -1.7
v 0.6 1.4 -1.7
v 1.3 1.4 -1.7
v 1.6 1.4 -1.7
v 0.9 2.1 -2
v 1.1 2.1 -2
v 0.9 2.1 -2.1
v 1.1 2.1 -2.1
v 0.3 2.3 -1
v 1.6 2.3 -1
v 0.3 2.3 -2
v 1.6 2.3 -2
v 0.8 2.5 -0.1
v 1.1 2.5 -0.1
v 0.8 2.5 -0.2
v 1.1 2.5 -0.2
v 0.8 2.5 -0.3
v 1.1 2.5 -0.3
v 0.2 2.6 -0.3
v 0.3 2.6 -0.3
v 1.6 2.6 -0.3
v 1.7 2.6 -0.3
v 0.2 2.6 -1
v 0.3 2.6 -1
v 1.6 2.6 -1
v 1.7 2.6 -1
v 0.9 2.7 -2.2
v 1.1 2.7 -2.2
v 0.9 2.7 -2.3
v 1.1 2.7 -2.3
v 0.9 2.8 -2
v 1.1 2.8 -2
v 0.9 2.8 -2.2
v 1.1 2.8 -2.2
v 0.4 2.9 -0.2
v 0.7 2.9 -0.2
v 0.8 2.9 -0.2
v 1.1 2.9 -0.2
v 1.2 2.9 -0.2
v 1.5 2.9 -0.2
v 0.4 2.9 -0.3
v 0.7 2.9 -0.3
v 0.8 2.9 -0.3
v 1.1 2.9 -0.3
v 1.2 2.9 -0.3
v 1.5 2.9 -0.3
v 0.9 2.9 -1.9
v 1.1 2.9 -1.9
v 0.9 2.9 -2
v 1.1 2.9 -2
v 0.3 3.2 -0.3
v 0.4 3.2 -0.3
v 1.5 3.2 -0.3
v 1.6 3.2 -0.3
v 0.3 3.2 -0.6
v 0.4 3.2 -0.6
v 1.5 3.2 -0.6
v 1.6 3.2 -0.6
v 0.3 3.2 -0.9
v 0.4 3.2 -0.9
v 1.5 3.2 -0.9
v 1.6 3.2 -0.9
v 0.3 3.2 -1
v 0.4 3.2 -1
v 1.5 3.2 -1
v 1.6 3.2 -1
v 0.4 3.3 -0.3
v 1.5 3.3 -0.3
v 0.4 3.3 -0.6
v 0.6 3.3 -0.6
v 0.7 3.3 -0.6
v 1.2 3.3 -0.6
v 1.3 3.3 -0.6
v 1.5 3.3 -0.6
v 0.4 3.3 -0.8
v 0.6 3.3 -0.8
v 1.3 3.3 -0.8
v 1.5 3.3 -0.8
v 0.4 3.3 -0.9
v 0.6 3.3 -0.9
v 0.7 3.3 -0.9
v 1.2 3.3 -0.9
v 1.3 3.3 -0.9
v 1.5 3.3 -0.9
v 0.4 3.3 -1
v 1.5 3.3 -1
v 0.3 3.6 -0.6
v 0.7 3.6 -0.6
v 1.2 3.6 -0.6
v 1.6 3.6 -0.6
v 0.3 3.6 -0.9
v 0.7 3.6 -0.9
v 1.2 3.6 -0.9
v 1.6 3.6 -0.9

# faces
f 3/5/1 2/5/1 1/5/1
f 4/5/1 2/5/1 3/5/1
f 9/1/1 6/1/1 5/1/1
f 10/1/1 6/1/1 9/1/1
f 11/1/1 6/1/1 10/1/1
f 12/1/1 8/1/1 7/1/1
f 13/1/1 8/1/1 12/1/1
f 14/1/1 8/1/1 13/1/1
f 15/5/1 11/5/1 10/5/1
f 16/5/1 14/5/1 13/5/1
f 18/5/1 15/5/1 10/5/1
f 18/5/1 16/5/1 15/5/1
f 19/5/1 18/5/1 17/5/1
f 20/5/1 16/5/1 18/5/1
f 20/5/1 18/5/1 19/5/1
f 21/5/1 16/5/1 20/5/1
f 22/5/1 14/5/1 16/5/1
f 22/5/1 16/5/1 21/5/1
f 25/5/1 24/5/1 23/5/1
f 26/5/1 24/5/1 25/5/1
f 27/5/1 24/5/1 26/5/1
f 28/5/1 24/5/1 27/5/1
f 29/5/1 27/5/1 26/5/1
f 30/5/1 27/5/1 29/5/1
f 33/4/1 32/4/1 31/4/1
f 34/4/1 32/4/1 33/4/1
f 35/3/1 34/3/1 33/3/1
f 36/3/1 34/3/1 35/3/1
f 41/5/1 38/5/1 37/5/1
f 42/5/1 38/5/1 41/5/1
f 43/5/1 40/5/1 39/5/1
f 44/5/1 40/5/1 43/5/1
f 47/5/1 46/5/1 45/5/1
f 48/5/1 46/5/1 47/5/1
f 51/2/1 50/2/1 49/2/1
f 52/2/1 50/2/1 51/2/1
f 55/8/1 54/8/1 53/8/1
f 56/8/1 54/8/1 55/8/1
f 59/7/1 58/7/1 57/7/1
f 60/7/1 58/7/1 59/7/1
f 63/5/1 62/5/1 61/5/1
f 64/5/1 62/5/1 63/5/1
f 67/7/1 66/7/1 65/7/1
f 68/7/1 66/7/1 67/7/1
f 70/5/1 62/5/1 64/5/1
f 71/5/1 62/5/1 70/5/1
f 72/5/1 62/5/1 71/5/1
f 73/5/1 70/5/1 69/5/1
f 73/5/1 71/5/1 70/5/1
f 74/5/1 71/5/1 73/5/1
f 75/5/1 73/5/1 69/5/1
f 76/5/1 73/5/1 75/5/1
f 79/3/1 78/3/1 77/3/1
f 80/3/1 78/3/1 79/3/1
f 81/4/1 80/4/1 79/4/1
f 82/4/1 80/4/1 81/4/1
f 85/5/1 84/5/1 83/5/1
f 86/5/1 84/5/1 85/5/1
f 91/1/1 88/1/1 87/1/1
f 92/1/1 88/1/1 91/1/1
f 93/1/1 88/1/1 92/1/1
f 94/1/1 90/1/1 89/1/1
f 95/1/1 90/1/1 94/1/1
f 96/1/1 90/1/1 95/1/1
f 97/5/1 93/5/1 92/5/1
f 98/5/1 93/5/1 97/5/1
f 99/5/1 96/5/1 95/5/1
f 100/5/1 96/5/1 99/5/1
f 103/5/1 102/5/1 101/5/1
f 104/5/1 102/5/1 103/5/1
f 105/5/2 106/5/2 107/5/2
f 107/5/2 106/5/2 108/5/2
f 109/1/2 110/1/2 113/1/2
f 113/1/2 110/1/2 114/1/2
f 114/1/2 110/1/2 115/1/2
f 111/1/2 112/1/2 116/1/2
f 116/1/2 112/1/2 117/1/2
f 117/1/2 112/1/2 118/1/2
f 114/5/2 115/5/2 119/5/2
f 119/5/2 115/5/2 120/5/2
f 117/5/2 118/5/2 121/5/2
f 121/5/2 118/5/2 122/5/2
f 123/5/2 124/5/2 125/5/2
f 125/5/2 124/5/2 126/5/2
f 127/3/2 128/3/2 129/3/2
f 129/3/2 128/3/2 130/3/2
f 129/4/2 130/4/2 131/4/2
f 131/4/2 130/4/2 132/4/2
f 133/7/2 134/7/2 135/7/2
f 135/7/2 134/7/2 136/7/2
f 137/5/2 138/5/2 141/5/2
f 141/5/2 138/5/2 142/5/2
f 139/8/2 140/8/2 143/8/2
f 143/8/2 140/8/2 144/8/2
f 145/7/2 146/7/2 147/7/2
f 147/7/2 146/7/2 148/7/2
f 142/5/2 138/5/2 150/5/2
f 150/5/2 138/5/2 151/5/2
f 151/5/2 138/5/2 152/5/2
f 149/5/2 150/5/2 153/5/2
f 150/5/2 151/5/2 153/5/2
f 153/5/2 151/5/2 154/5/2
f 149/5/2 153/5/2 155/5/2
f 155/5/2 153/5/2 156/5/2
f 157/2/2 158/2/2 159/2/2
f 159/2/2 158/2/2 160/2/2
f 161/5/2 162/5/2 163/5/2
f 163/5/2 162/5/2 164/5/2
f 165/4/2 166/4/2 167/4/2
f 167/4/2 166/4/2 168/4/2
f 167/3/2 168/3/2 169/3/2
f 169/3/2 168/3/2 170/3/2
f 171/5/2 172/5/2 175/5/2
f 175/5/2 172/5/2 176/5/2
f 173/5/2 174/5/2 177/5/2
f 177/5/2 174/5/2 178/5/2
f 179/1/2 180/1/2 183/1/2
f 183/1/2 180/1/2 184/1/2
f 184/1/2 180/1/2 185/1/2
f 181/1/2 182/1/2 186/1/2
f 186/1/2 182/1/2 187/1/2
f 187/1/2 182/1/2 188/1/2
f 184/5/2 185/5/2 189/5/2
f 187/5/2 188/5/2 190/5/2
f 184/5/2 189/5/2 192/5/2
f 189/5/2 190/5/2 192/5/2
f 191/5/2 192/5/2 193/5/2
f 192/5/2 190/5/2 194/5/2
f 193/5/2 192/5/2 194/5/2
f 194/5/2 190/5/2 195/5/2
f 190/5/2 188/5/2 196/5/2
f 195/5/2 190/5/2 196/5/2
f 197/5/2 198/5/2 199/5/2
f 199/5/2 198/5/2 200/5/2
f 200/5/2 198/5/2 201/5/2
f 201/5/2 198/5/2 202/5/2
f 200/5/2 201/5/2 203/5/2
f 203/5/2 201/5/2 204/5/2
f 205/5/2 206/5/2 207/5/2
f 207/5/2 206/5/2 208/5/2
f 212/7/3 210/7/3 209/7/3
f 213/7/3 212/7/3 211/7/3
f 214/7/3 210/7/3 212/7/3
f 214/7/3 212/7/3 213/7/3
f 215/7/3 210/7/3 214/7/3
f 216/7/3 210/7/3 215/7/3
f 220/4/3 218/4/3 217/4/3
f 221/3/3 219/3/3 218/3/3
f 221/4/3 218/4/3 220/4/3
f 222/3/3 219/3/3 221/3/3
f 223/3/3 219/3/3 222/3/3
f 224/5/3 222/5/3 221/5/3
f 224/6/3 223/6/3 222/6/3
f 225/3/3 219/3/3 223/3/3
f 225/6/3 223/6/3 224/6/3
f 227/3/3 221/3/3 220/3/3
f 228/5/3 224/5/3 221/5/3
f 228/5/3 225/5/3 224/5/3
f 228/3/3 221/3/3 227/3/3
f 229/5/3 225/5/3 228/5/3
f 230/3/3 219/3/3 225/3/3
f 230/5/3 225/5/3 229/5/3
f 231/3/3 219/3/3 230/3/3
f 233/2/3 227/2/3 226/2/3
f 234/2/3 227/2/3 233/2/3
f 235/3/3 229/3/3 228/3/3
f 235/2/3 227/2/3 234/2/3
f 235/3/3 228/3/3 227/3/3
f 236/4/3 230/4/3 229/4/3
f 236/3/3 229/3/3 235/3/3
f 236/4/3 231/4/3 230/4/3
f 237/4/3 231/4/3 236/4/3
f 238/2/3 234/2/3 233/2/3
f 239/2/3 234/2/3 238/2/3
f 240/2/3 238/2/3 233/2/3
f 242/8/3 233/8/3 232/8/3
f 243/2/3 241/2/3 240/2/3
f 243/8/3 233/8/3 242/8/3
f 243/2/3 240/2/3 233/2/3
f 244/2/3 241/2/3 243/2/3
f 248/2/3 244/2/3 243/2/3
f 248/2/3 245/2/3 244/2/3
f 249/3/3 246/3/3 245/3/3
f 249/2/3 245/2/3 248/2/3
f 250/3/3 246/3/3 249/3/3
f 251/4/3 247/4/3 246/4/3
f 251/3/3 246/3/3 250/3/3
f 252/4/3 247/4/3 251/4/3
f 253/4/3 247/4/3 252/4/3
f 254/5/3 251/5/3 250/5/3
f 254/6/3 252/6/3 251/6/3
f 255/3/3 253/3/3 252/3/3
f 255/6/3 252/6/3 254/6/3
f 256/3/3 250/3/3 249/3/3
f 257/5/3 254/5/3 250/5/3
f 257/3/3 250/3/3 256/3/3
f 257/5/3 255/5/3 254/5/3
f 258/3/3 253/3/3 255/3/3
f 258/5/3 255/5/3 257/5/3
f 259/4/3 257/4/3 256/4/3
f 260/3/3 258/3/3 257/3/3
f 260/4/3 257/4/3 259/4/3
f 261/3/3 253/3/3 258/3/3
f 261/3/3 258/3/3 260/3/3
f 265/5/3 263/5/3 262/5/3
f 266/5/3 263/5/3 265/5/3
f 268/5/3 265/5/3 264/5/3
f 268/5/3 267/5/3 266/5/3
f 268/5/3 266/5/3 265/5/3
f 269/5/3 267/5/3 268/5/3
f 270/5/3 267/5/3 269/5/3
f 271/5/3 267/5/3 270/5/3
f 273/5/3 268/5/3 264/5/3
f 274/5/3 273/5/3 264/5/3
f 275/5/3 273/5/3 274/5/3
f 276/5/3 272/5/3 271/5/3
f 276/5/3 271/5/3 270/5/3
f 277/5/3 274/5/3 264/5/3
f 278/5/3 274/5/3 277/5/3
f 281/5/3 272/5/3 276/5/3
f 282/5/3 277/5/3 264/5/3
f 284/5/3 280/5/3 279/5/3
f 284/5/3 281/5/3 280/5/3
f 285/5/3 281/5/3 284/5/3
f 286/5/3 272/5/3 281/5/3
f 286/5/3 281/5/3 285/5/3
f 287/5/3 283/5/3 282/5/3
f 289/5/3 272/5/3 286/5/3
f 290/5/3 288/5/3 287/5/3
f 291/5/3 290/5/3 287/5/3
f 293/5/3 272/5/3 289/5/3
f 294/5/3 272/5/3 293/5/3
f 295/5/3 272/5/3 294/5/3
f 296/5/3 292/5/3 291/5/3
f 296/5/3 282/5/3 264/5/3
f 296/5/3 294/5/3 293/5/3
f 296/5/3 293/5/3 292/5/3
f 296/5/3 287/5/3 282/5/3
f 296/5/3 291/5/3 287/5/3
f 297/5/3 294/5/3 296/5/3
f 298/5/3 294/5/3 297/5/3
f 299/5/3 294/5/3 298/5/3
f 300/5/3 298/5/3 297/5/3
f 301/5/3 298/5/3 300/5/3
f 304/1/3 303/1/3 302/1/3
f 305/1/3 303/1/3 304/1/3
f 308/1/3 307/1/3 306/1/3
f 309/1/3 307/1/3 308/1/3
f 314/5/3 313/5/3 312/5/3
f 315/5/3 313/5/3 314/5/3
f 316/5/3 313/5/3 315/5/3
f 317/5/3 311/5/3 310/5/3
f 318/5/3 311/5/3 317/5/3
f 319/5/3 311/5/3 318/5/3
f 320/5/3 311/5/3 319/5/3
f 322/5/3 313/5/3 316/5/3
f 323/5/3 319/5/3 318/5/3
f 324/1/3 320/1/3 319/1/3
f 324/5/3 319/5/3 323/5/3
f 325/5/3 322/5/3 321/5/3
f 326/5/3 313/5/3 322/5/3
f 326/5/3 322/5/3 325/5/3
f 327/5/3 323/5/3 318/5/3
f 328/1/3 324/1/3 323/1/3
f 328/5/3 323/5/3 327/5/3
f 329/1/3 328/1/3 327/1/3
f 330/1/3 324/1/3 328/1/3
f 330/1/3 328/1/3 329/1/3
f 331/5/3 330/5/3 329/5/3
f 331/1/3 324/1/3 330/1/3
f 332/1/3 320/1/3 324/1/3
f 332/1/3 324/1/3 331/1/3
f 336/5/3 331/5/3 329/5/3
f 336/5/3 332/5/3 331/5/3
f 337/1/3 320/1/3 332/1/3
f 337/5/3 332/5/3 336/5/3
f 338/1/3 320/1/3 337/1/3
f 339/5/3 334/5/3 333/5/3
f 340/5/3 334/5/3 339/5/3
f 343/5/3 334/5/3 340/5/3
f 344/5/3 338/5/3 337/5/3
f 344/5/3 336/5/3 335/5/3
f 344/5/3 337/5/3 336/5/3
f 345/5/3 338/5/3 344/5/3
f 346/5/3 343/5/3 342/5/3
f 346/5/3 342/5/3 341/5/3
f 347/5/3 334/5/3 343/5/3
f 347/5/3 343/5/3 346/5/3
f 350/1/3 349/1/3 348/1/3
f 351/1/3 349/1/3 350/1/3
f 354/1/3 353/1/3 352/1/3
f 355/1/3 353/1/3 354/1/3
f 358/1/3 357/1/3 356/1/3
f 359/1/3 357/1/3 358/1/3
f 362/1/3 361/1/3 360/1/3
f 363/1/3 361/1/3 362/1/3
f 366/5/3 365/5/3 364/5/3
f 367/5/3 365/5/3 366/5/3
f 370/5/3 369/5/3 368/5/3
f 371/5/3 369/5/3 370/5/3
f 374/5/3 373/5/3 372/5/3
f 375/5/3 373/5/3 374/5/3
f 378/5/3 377/5/3 376/5/3
f 379/5/3 377/5/3 378/5/3
f 383/5/4 384/5/4 385/5/4
f 385/5/4 384/5/4 386/5/4
f 386/5/4 384/5/4 387/5/4
f 380/1/4 381/1/4 388/1/4
f 381/5/4 382/5/4 389/5/4
f 388/1/4 381/1/4 389/1/4
f 389/5/4 382/5/4 390/5/4
f 386/1/4 387/1/4 391/1/4
f 387/5/4 384/5/4 392/5/4
f 391/1/4 387/1/4 392/1/4
f 391/5/4 392/5/4 393/5/4
f 392/5/4 384/5/4 394/5/4
f 393/5/4 392/5/4 394/5/4
f 395/5/4 396/5/4 400/5/4
f 400/5/4 396/5/4 401/5/4
f 400/1/4 401/1/4 403/1/4
f 401/5/4 396/5/4 404/5/4
f 403/1/4 401/1/4 404/1/4
f 397/1/4 398/1/4 405/1/4
f 398/5/4 399/5/4 406/5/4
f 405/1/4 398/1/4 406/1/4
f 406/5/4 399/5/4 407/5/4
f 402/5/4 403/5/4 408/5/4
f 403/5/4 404/5/4 408/5/4
f 404/5/4 396/5/4 409/5/4
f 408/5/4 404/5/4 409/5/4
f 410/5/4 411/5/4 412/5/4
f 412/5/4 411/5/4 413/5/4
f 413/5/4 411/5/4 414/5/4
f 414/5/4 415/5/4 416/5/4
f 413/5/4 414/5/4 416/5/4
f 413/5/4 416/5/4 418/5/4
f 416/5/4 417/5/4 418/5/4
f 418/5/4 417/5/4 419/5/4
f 413/5/4 418/5/4 421/5/4
f 421/5/4 418/5/4 422/5/4
f 422/5/4 418/5/4 423/5/4
f 420/5/4 421/5/4 424/5/4
f 421/5/4 422/5/4 424/5/4
f 424/5/4 422/5/4 425/5/4
f 426/1/4 427/1/4 429/1/4
f 427/5/4 428/5/4 430/5/4
f 429/1/4 427/1/4 430/1/4
f 430/5/4 428/5/4 431/5/4
f 431/5/4 428/5/4 432/5/4
f 432/5/4 428/5/4 433/5/4
f 431/5/4 432/5/4 436/5/4
f 433/5/4 428/5/4 437/5/4
f 434/5/4 435/5/4 438/5/4
f 438/5/4 435/5/4 439/5/4
f 436/5/4 437/5/4 442/5/4
f 431/5/4 436/5/4 442/5/4
f 440/1/4 441/1/4 443/1/4
f 441/5/4 442/5/4 444/5/4
f 443/1/4 441/1/4 444/1/4
f 437/5/4 428/5/4 445/5/4
f 444/5/4 442/5/4 445/5/4
f 442/5/4 437/5/4 445/5/4
f 446/5/4 447/5/4 448/5/4
f 448/5/4 447/5/4 449/5/4
f 450/5/4 451/5/4 452/5/4
f 452/5/4 451/5/4 453/5/4
f 458/1/5 455/1/5 454/1/5
f 459/1/5 455/1/5 458/1/5
f 460/1/5 457/1/5 456/1/5
f 461/1/5 457/1/5 460/1/5
f 466/1/5 463/1/5 462/1/5
f 467/1/5 463/1/5 466/1/5
f 468/1/5 465/1/5 464/1/5
f 469/1/5 465/1/5 468/1/5
f 475/5/5 471/5/5 470/5/5
f 476/5/5 473/5/5 472/5/5
f 478/5/5 475/5/5 474/5/5
f 479/5/5 471/5/5 475/5/5
f 479/5/5 475/5/5 478/5/5
f 480/5/5 477/5/5 476/5/5
f 480/5/5 476/5/5 472/5/5
f 481/5/5 477/5/5 480/5/5
f 482/5/5 471/5/5 479/5/5
f 482/1/5 472/1/5 471/1/5
f 483/5/5 480/5/5 472/5/5
f 483/1/5 472/1/5 482/1/5
f 484/5/5 482/5/5 479/5/5
f 484/5/5 483/5/5 482/5/5
f 485/5/5 480/5/5 483/5/5
f 485/5/5 483/5/5 484/5/5
f 488/5/5 487/5/5 486/5/5
f 489/5/5 487/5/5 488/5/5
f 490/5/5 487/5/5 489/5/5
f 491/5/5 487/5/5 490/5/5
f 494/5/5 493/5/5 492/5/5
f 495/5/5 493/5/5 494/5/5
f 500/8/5 497/8/5 496/8/5
f 501/8/5 497/8/5 500/8/5
f 504/5/5 499/5/5 498/5/5
f 505/5/5 499/5/5 504/5/5
f 506/5/5 503/5/5 502/5/5
f 507/5/5 503/5/5 506/5/5
f 512/2/5 509/2/5 508/2/5
f 513/2/5 509/2/5 512/2/5
f 514/2/5 511/2/5 510/2/5
f 515/2/5 511/2/5 514/2/5
f 518/7/5 517/7/5 516/7/5
f 519/7/5 517/7/5 518/7/5
f 524/7/5 521/7/5 520/7/5
f 525/7/5 521/7/5 524/7/5
f 526/7/5 523/7/5 522/7/5
f 527/7/5 523/7/5 526/7/5
f 534/4/5 529/4/5 528/4/5
f 535/3/5 530/3/5 529/3/5
f 535/4/5 529/4/5 534/4/5
f 536/3/5 530/3/5 535/3/5
f 537/3/5 532/3/5 531/3/5
f 538/4/5 533/4/5 532/4/5
f 538/3/5 532/3/5 537/3/5
f 539/4/5 533/4/5 538/4/5
f 542/5/5 541/5/5 540/5/5
f 543/5/5 541/5/5 542/5/5
f 548/5/5 545/5/5 544/5/5
f 549/5/5 545/5/5 548/5/5
f 550/5/5 547/5/5 546/5/5
f 551/5/5 547/5/5 550/5/5
f 552/1/6 553/1/6 556/1/6
f 556/1/6 553/1/6 557/1/6
f 554/1/6 555/1/6 558/1/6
f 558/1/6 555/1/6 559/1/6
f 560/1/6 561/1/6 564/1/6
f 564/1/6 561/1/6 565/1/6
f 562/1/6 563/1/6 566/1/6
f 566/1/6 563/1/6 567/1/6
f 568/5/6 569/5/6 570/5/6
f 570/5/6 569/5/6 571/5/6
f 572/5/6 573/5/6 574/5/6
f 574/5/6 573/5/6 575/5/6
f 576/7/6 577/7/6 578/7/6
f 578/7/6 577/7/6 579/7/6
f 578/2/6 579/2/6 580/2/6
f 580/2/6 579/2/6 581/2/6
f 582/5/6 583/5/6 586/5/6
f 586/5/6 583/5/6 587/5/6
f 584/5/6 585/5/6 588/5/6
f 588/5/6 585/5/6 589/5/6
f 590/5/6 591/5/6 592/5/6
f 592/5/6 591/5/6 593/5/6
f 594/5/6 595/5/6 596/5/6
f 596/5/6 595/5/6 597/5/6
f 598/3/6 599/3/6 604/3/6
f 599/4/6 600/4/6 605/4/6
f 604/3/6 599/3/6 605/3/6
f 605/4/6 600/4/6 606/4/6
f 601/4/6 602/4/6 607/4/6
f 602/3/6 603/3/6 608/3/6
f 607/4/6 602/4/6 608/4/6
f 608/3/6 603/3/6 609/3/6
f 610/5/6 611/5/6 612/5/6
f 612/5/6 611/5/6 613/5/6
f 614/5/6 615/5/6 618/5/6
f 618/5/6 615/5/6 619/5/6
f 616/5/6 617/5/6 620/5/6
f 620/5/6 617/5/6 621/5/6
f 622/5/6 623/5/6 626/5/6
f 626/5/6 623/5/6 627/5/6
f 624/5/6 625/5/6 628/5/6
f 628/5/6 625/5/6 629/5/6
f 630/5/6 631/5/6 632/5/6
f 632/5/6 631/5/6 633/5/6
f 633/5/6 631/5/6 634/5/6
f 634/5/6 631/5/6 635/5/6
f 635/5/6 631/5/6 636/5/6
f 636/5/6 631/5/6 637/5/6
f 632/5/6 633/5/6 638/5/6
f 638/5/6 633/5/6 639/5/6
f 636/5/6 637/5/6 640/5/6
f 640/5/6 637/5/6 641/5/6
f 634/5/6 635/5/6 644/5/6
f 644/5/6 635/5/6 645/5/6
f 642/5/6 643/5/6 648/5/6
f 646/5/6 647/5/6 648/5/6
f 645/5/6 646/5/6 648/5/6
f 644/5/6 645/5/6 648/5/6
f 643/5/6 644/5/6 648/5/6
f 648/5/6 647/5/6 649/5/6
f 650/5/6 651/5/6 654/5/6
f 654/5/6 651/5/6 655/5/6
f 652/5/6 653/5/6 656/5/6
f 656/5/6 653/5/6 657/5/6
